<svg width="22" height="21" viewBox="0 0 22 21" fill="none" xmlns="http://www.w3.org/2000/svg">
<g id="Frame" clip-path="url(#clip0_26_11)">
<g id="Group">
<path id="Vector" d="M11 21C17.0751 21 22 16.299 22 10.5C22 4.70101 17.0751 0 11 0C4.92487 0 0 4.70101 0 10.5C0 16.299 4.92487 21 11 21Z" fill="#8AC9FE"/>
<path id="Vector_2" d="M15.766 1.03394C17.0571 2.75462 17.8173 4.86291 17.8173 7.14087C17.8173 12.9399 12.8925 17.6409 6.81734 17.6409C5.11002 17.6409 3.49357 17.2696 2.05176 16.6069C4.0474 19.2666 7.31173 21 11.0005 21C17.0756 21 22.0005 16.299 22.0005 10.5C22.0005 6.33073 19.4547 2.72907 15.766 1.03394Z" fill="#60B7FF"/>
<path id="Vector_3" d="M11.0003 19.643C16.2902 19.643 20.5786 15.5495 20.5786 10.5C20.5786 5.45045 16.2902 1.35699 11.0003 1.35699C5.71026 1.35699 1.42188 5.45045 1.42188 10.5C1.42188 15.5495 5.71026 19.643 11.0003 19.643Z" fill="#EAF6FF"/>
<path id="Vector_4" d="M17.1262 3.47162C17.5726 4.6139 17.8171 5.85003 17.8171 7.14088C17.8171 12.9399 12.8923 17.6409 6.81714 17.6409C6.12556 17.6409 5.44914 17.5793 4.79297 17.4628C6.46484 18.8221 8.63197 19.643 11.0002 19.643C16.2902 19.643 20.5786 15.5495 20.5786 10.5C20.5786 7.67457 19.2357 5.14875 17.1262 3.47162Z" fill="#D8ECFE"/>
<g id="Group_2">
<path id="Vector_5" d="M10.8714 5.01384L7.78206 9.76948C7.74477 9.8269 7.76294 9.90229 7.8228 9.93834L10.9743 11.8383C11.0168 11.8639 11.0711 11.8636 11.1133 11.8375L14.1793 9.93916C14.2384 9.90258 14.2558 9.82748 14.2183 9.7705L11.0901 5.01323C11.0394 4.93616 10.9217 4.93649 10.8714 5.01384Z" fill="#60B7FF"/>
<path id="Vector_6" d="M11.0883 13.4836L13.7963 11.876C13.9137 11.8063 14.048 11.9379 13.972 12.0481L11.2436 16.0041C11.1939 16.0762 11.0839 16.0783 11.0312 16.0082L8.07886 12.0759C7.99692 11.9667 8.13128 11.829 8.25112 11.8993L10.9528 13.4839C10.9944 13.5084 11.0469 13.5083 11.0883 13.4836Z" fill="#60B7FF"/>
</g>
</g>
</g>
<defs>
<clipPath id="clip0_26_11">
<rect width="22" height="21" fill="white"/>
</clipPath>
</defs>
</svg>
